<svg xmlns="http://www.w3.org/2000/svg" version="1.1" xmlns:xlink="http://www.w3.org/1999/xlink" xmlns:svgjs="http://svgjs.com/svgjs" width="24" height="24"><svg fill="currentColor" class="material-design-icon__svg" width="24" height="24" viewBox="0 0 24 24" version="1.1" id="SvgjsSvg1005" sodipodi:docname="logo-invert.svg" inkscape:version="1.2 (dc2aeda, 2022-05-15)" xmlns:inkscape="http://www.inkscape.org/namespaces/inkscape" xmlns:sodipodi="http://sodipodi.sourceforge.net/DTD/sodipodi-0.dtd" xmlns="http://www.w3.org/2000/svg" xmlns:svg="http://www.w3.org/2000/svg">
  <defs id="SvgjsDefs1004"></defs>
  <sodipodi:namedview id="SvgjsSodipodi:namedview1003" pagecolor="#505050" bordercolor="#eeeeee" borderopacity="1" inkscape:showpageshadow="0" inkscape:pageopacity="0" inkscape:pagecheckerboard="0" inkscape:deskcolor="#505050" showgrid="false" inkscape:zoom="14.720497" inkscape:cx="-1.6303797" inkscape:cy="14.028059" inkscape:window-width="1309" inkscape:window-height="805" inkscape:window-x="109" inkscape:window-y="51" inkscape:window-maximized="0" inkscape:current-layer="svg20"></sodipodi:namedview>
  <path style="fill:#eceff4;fill-opacity:1;stroke-width:0.599999" id="SvgjsPath1002" sodipodi:type="arc" sodipodi:cx="12" sodipodi:cy="12" sodipodi:rx="12" sodipodi:ry="12" sodipodi:start="0" sodipodi:end="6.2823401" sodipodi:arc-type="slice" d="M 24,12 A 12,12 0 0 1 12.002536,24 12,12 0 0 1 1.0715627e-6,12.005071 12,12 0 0 1 11.992393,2.4110161e-6 12,12 0 0 1 23.999996,11.989858 L 12,12 Z"></path>
  <path d="M12,20L12.76,17C9.5,16.79 6.59,15.4 5.75,13.58C5.66,14.06 5.53,14.5 5.33,14.83C4.67,16 3.33,16 2,16C3.1,16 3.5,14.43 3.5,12.5C3.5,10.57 3.1,9 2,9C3.33,9 4.67,9 5.33,10.17C5.53,10.5 5.66,10.94 5.75,11.42C6.4,10 8.32,8.85 10.66,8.32L9,5C11,5 13,5 14.33,5.67C15.46,6.23 16.11,7.27 16.69,8.38C19.61,9.08 22,10.66 22,12.5C22,14.38 19.5,16 16.5,16.66C15.67,17.76 14.86,18.78 14.17,19.33C13.33,20 12.67,20 12,20M17,11A1,1 0 0,0 16,12A1,1 0 0,0 17,13A1,1 0 0,0 18,12A1,1 0 0,0 17,11Z" id="SvgjsPath1001" style="fill:#2e3440;fill-opacity:1">
    <!---->
  </path>
  <circle id="SvgjsCircle1000" style="fill:#eceff4;stroke:#000000" cx="31.113081" cy="12.703376" r="0.034199212"></circle>
</svg><style>@media (prefers-color-scheme: light) { :root { filter: none; } }
@media (prefers-color-scheme: dark) { :root { filter: contrast(1) brightness(1.3); } }
</style></svg>
