<?xml version="1.0" encoding="UTF-8" standalone="no"?>
<svg
   id="visual"
   viewBox="0 0 960 200"
   width="960"
   height="200"
   version="1.1"
   sodipodi:docname="layered-wave-spacer.svg"
   inkscape:version="1.2.1 (9c6d41e410, 2022-07-14)"
   xmlns:inkscape="http://www.inkscape.org/namespaces/inkscape"
   xmlns:sodipodi="http://sodipodi.sourceforge.net/DTD/sodipodi-0.dtd"
   xmlns="http://www.w3.org/2000/svg"
   xmlns:svg="http://www.w3.org/2000/svg">
  <defs
     id="defs13" />
  <sodipodi:namedview
     id="namedview11"
     pagecolor="#505050"
     bordercolor="#eeeeee"
     borderopacity="1"
     inkscape:showpageshadow="0"
     inkscape:pageopacity="0"
     inkscape:pagecheckerboard="0"
     inkscape:deskcolor="#505050"
     showgrid="false"
     inkscape:zoom="0.97308915"
     inkscape:cx="491.73295"
     inkscape:cy="41.106203"
     inkscape:window-width="1920"
     inkscape:window-height="1032"
     inkscape:window-x="0"
     inkscape:window-y="0"
     inkscape:window-maximized="1"
     inkscape:current-layer="visual" />
  <rect
     x="0"
     y="0.97254074"
     width="960"
     height="200"
     fill="#001220"
     id="rect2"
     style="fill:#2e3440;fill-opacity:1;stroke-width:0.816496" />
  <path
     d="M 0,17 22.8,13.8 C 45.7,10.7 91.3,4.3 137,9.7 182.7,15 228.3,32 274,31.8 319.7,31.7 365.3,14.3 411.2,5 457,-4.3 503,-5.7 548.8,2 c 45.9,7.7 91.5,24.3 137.2,38 45.7,13.7 91.3,24.3 137,28 45.7,3.7 91.3,0.3 114.2,-1.3 L 960,65 v 138 h -22.8 c -22.9,0 -68.5,0 -114.2,0 -45.7,0 -91.3,0 -137,0 -45.7,0 -91.3,0 -137.2,0 -45.8,0 -91.8,0 -137.6,0 -45.9,0 -91.5,0 -137.2,0 -45.7,0 -91.3,0 -137,0 -45.7,0 -91.3,0 -114.2,0 H 0 Z"
     fill="#2e3440"
     id="path4" />
  <path
     d="m -5.1943662,102.05429 49.4244052,6.49581 c 22.9,2.75728 44.918384,9.96032 90.618391,7.04086 45.7,-3.00057 87.80368,-6.82354 133.50368,-16.311806 48.12053,-7.793491 89.41737,-11.382339 135.31737,-12.598784 45.8,-1.216445 90.99316,1.822143 137.86895,8.531602 46.97579,5.176878 96.61,8.457828 142.31,13.566888 45.7,5.19017 95.9088,0.0992 141.56418,-3.64329 22.96316,-1.88235 47.34337,-1.31419 71.13163,-0.91922 21.5789,0.35828 38.37457,1.01471 48.9773,2.29133 l 16.44151,1.31187 1.53327,99.69889 -28.44789,8.87525 h -114.2 -137 -137.2 -137.6 -137.2 -137 H 20.648423 L -5.1943662,188.0164 Z"
     fill="#434c5e"
     id="path6"
     sodipodi:nodetypes="cccccccssccccccccccccc"
     style="stroke-width:0.900535" />
  <path
     d="M -1.5213946,179.06458 25.082092,174.5479 c 22.9,-6.71365 110.338358,-23.80679 156.038358,-20.91274 45.7,2.80892 101.94976,16.39155 147.64976,22.09452 45.7,5.61784 60.11141,9.99766 106.01141,8.12504 45.8,-1.87263 60.75776,-9.04083 108.44038,-16.43545 45.9,-2.55357 106.20637,-6.09291 151.90637,-2.34762 45.7,3.66013 85.22944,13.95462 128.94742,20.07267 45.39881,6.35327 91.3,2.97916 114.2,1.70238 L 960,185.5699 v 47.44489 H 937.2 823 686 548.8 411.2 274 137 22.8 0 Z"
     fill="#2e3440"
     id="path8"
     style="fill:#373e4d;fill-opacity:1;stroke-width:0.922599"
     sodipodi:nodetypes="cccccccsccccccccccccc" />
</svg>
